<?xml version="1.0" encoding="UTF-8"?>
<!DOCTYPE svg PUBLIC "-//W3C//DTD SVG 1.1//EN" "http://www.w3.org/Graphics/SVG/1.1/DTD/svg11.dtd">
<!-- Creator: CorelDRAW -->
<svg xmlns="http://www.w3.org/2000/svg" xml:space="preserve" width="105.114mm" height="131.451mm" version="1.1" style="shape-rendering:geometricPrecision; text-rendering:geometricPrecision; image-rendering:optimizeQuality; fill-rule:evenodd; clip-rule:evenodd"
viewBox="0 0 10497.2 13127.28"
 xmlns:xlink="http://www.w3.org/1999/xlink"
 xmlns:xodm="http://www.corel.com/coreldraw/odm/2003">
 <defs>
  <style type="text/css">
   <![CDATA[
    .fil0 {fill:#E5E5E5}
   ]]>
  </style>
 </defs>
 <g id="Camada_x0020_1">
  <metadata id="CorelCorpID_0Corel-Layer"/>
  <path class="fil0" d="M5075.15 11207.95c-515.89,58.15 -1498.87,-267.66 -1914.85,-458.33 -564.43,-258.71 -976.27,-573.87 -1399.93,-975.26 -341.94,-323.97 -724.63,-832.52 -987.58,-1387.63 -837.32,-1767.62 -533.43,-3761.53 673.66,-5240.49 677.7,-830.35 1719.35,-1468.13 2777.94,-1688.41 134.08,-27.89 393.82,-59.32 505.16,-95.09 -173.16,-66.46 -869.57,84.75 -1067.85,139.92 -815.38,226.84 -1309.93,568.43 -1912.01,1053.11 -320.71,258.19 -732.17,764.8 -954.59,1117.15 -1133.98,1796.37 -1037.58,4035.03 177.89,5786.53 116.56,167.95 421.54,539.45 585.14,688.27 745.17,677.81 1366.93,1084.07 2406.64,1354.77 170.11,44.28 349.64,78.71 525,102.3 123.15,16.57 509.82,21.42 582.59,62.87 89.43,120.86 93.02,1272.4 179.2,1459.61l160.23 -1471.72c1204.36,-5.17 2296.28,-488.69 3189.97,-1202.33 948.31,-757.28 1821.67,-2142.37 1890.84,-3791.35 44.3,-1056.05 -232.52,-2120.92 -778.7,-2978.55l-398.73 -551.73c-453.31,-513.58 -937.92,-958.03 -1567.07,-1264.25 -579.34,-281.98 -1251.68,-544.82 -1999.02,-516.1 181.41,83.47 794.91,51.07 1791.74,571.3 412.68,215.38 1049.46,674.98 1353.48,1041.02 266.24,320.56 239.04,264.67 511.57,666.58 1303.99,1922.95 912.82,4658.62 -660.96,6130.32 -57.98,54.22 -80.42,85.52 -138.88,145.62l-495.22 398.42c-186.19,129.81 -505.39,336.01 -756.37,440.48 -295.96,123.18 -542.09,237.79 -881.45,315.11 -230.33,52.47 -823.92,186.89 -1044.15,142.48 10.78,-935.17 -16.1,-1874.46 -14.04,-2808.23 2.05,-931.37 -3.36,-1902.78 -32.99,-2831.89 -29.67,-930.25 -16.78,-1868.36 -46.82,-2798.25 -12.65,-391.92 -33.22,-2575.71 -84.81,-2764.21 -52.31,124.15 -71.46,2400.36 -81.97,2747.94 -27.95,924.1 -22.15,1864.1 -44.03,2795.52 -22.2,944.75 -21.44,1886.3 -34.2,2831.76 -12.64,937.44 -26.4,1894.44 -14.8,2832.73z"/>
 </g>
</svg>
